<?xml version="1.0" standalone="no"?><!DOCTYPE svg PUBLIC "-//W3C//DTD SVG 1.1//EN" "http://www.w3.org/Graphics/SVG/1.1/DTD/svg11.dtd"><svg t="1586529725158" class="icon" viewBox="0 0 1024 1024" version="1.1" xmlns="http://www.w3.org/2000/svg" p-id="3862" width="256" height="256" xmlns:xlink="http://www.w3.org/1999/xlink"><defs><style type="text/css"></style></defs><path d="M834.841523 688.594452m-177.034394 0a177.034394 177.034394 0 1 0 354.068788 0 177.034394 177.034394 0 1 0-354.068788 0Z" fill="#FF8F8F" p-id="3863"></path><path d="M657.807129 688.594452a177.034394 135.607167 0 1 0 354.068788 0 177.034394 135.607167 0 1 0-354.068788 0Z" fill="#FF1A1A" p-id="3864"></path><path d="M657.807129 688.594452c0 97.780202 79.270337 177.042466 177.042466 177.042466 97.764058 0 177.026322-79.254192 177.026322-177.042466H657.807129z" fill="#FFFFFF" p-id="3865"></path><path d="M834.841523 824.193547c97.764058 0 177.026322-60.712037 177.026322-135.607167H657.807129c0 74.895131 79.270337 135.607167 177.034394 135.607167z" fill="#D8E5EA" p-id="3866"></path><path d="M189.143463 335.155306m-177.034394 0a177.034394 177.034394 0 1 0 354.068788 0 177.034394 177.034394 0 1 0-354.068788 0Z" fill="#36C6FF" p-id="3867"></path><path d="M12.109069 335.155306a177.034394 135.607167 0 1 0 354.068788 0 177.034394 135.607167 0 1 0-354.068788 0Z" fill="#0086FF" p-id="3868"></path><path d="M12.117141 335.155306c0 97.780202 79.270337 177.042466 177.042466 177.042466 97.764058 0 177.026322-79.254192 177.026322-177.042466H12.117141z" fill="#FFFFFF" p-id="3869"></path><path d="M189.151535 470.762473c97.764058 0 177.026322-60.712037 177.026322-135.607167H12.117141c0 74.895131 79.270337 135.607167 177.034394 135.607167z" fill="#D8E5EA" p-id="3870"></path><path d="M1023.976348 688.594452c0-104.286505-84.84832-189.134825-189.134825-189.134826-104.294577 0-189.15097 84.84832-189.15097 189.134826 0 103.78602 84.041087 188.295302 187.641443 189.110608-88.908705 78.309729-201.808392 121.189976-321.335467 121.189976-130.08569 0-252.381576-50.653906-344.365841-142.646244a12.108504 12.108504 0 1 0-17.121424 17.121424c96.56128 96.56128 224.935634 149.741827 361.487265 149.741827 136.301388 0 264.465862-53.002956 360.954491-149.225198 86.09146-17.69456 151.025329-94.050783 151.025328-185.292393z m-189.126753-164.917818c86.842187 0 158.056333 67.525088 164.304321 152.809314h-328.624786c6.239915-85.284227 77.462133-152.809315 164.320465-152.809314z m0 329.843708c-86.85026 0-158.072478-67.53316-164.320465-152.825459h328.616713c-6.239915 85.292299-77.454061 152.825459-164.296248 152.825459zM378.28636 335.155306c0-103.777948-84.033015-188.271085-187.617226-189.094464C381.733248-21.98097 673.959872-14.909604 856.370442 167.500966c2.365194 2.365194 5.464971 3.543755 8.564748 3.543755s6.199554-1.178561 8.564748-3.543755a12.108504 12.108504 0 0 0 0-17.121424C674.339272-48.773052 350.396441-48.934499 151.033966 149.887129 64.950578 167.573617 0.008637 243.921768 0.008637 335.155306c0 104.294577 84.856393 189.15097 189.15097 189.15097 104.278433 0 189.126753-84.856393 189.126753-189.15097zM189.151535 170.24556c86.842187 0 158.056333 67.525088 164.304321 152.809315H24.839142c6.239915-85.284227 77.462133-152.809315 164.312393-152.809315zM24.839142 347.263809h328.616714c-6.239915 85.284227-77.454061 152.825459-164.304321 152.82546-86.85026 0-158.072478-67.53316-164.312393-152.82546z" fill="#33363A" p-id="3871"></path><path d="M999.775486 305.658991c3.325802 0.750727 6.796907-0.250242 9.19439-2.663871 2.413628-2.413628 3.42267-5.884733 2.647726-9.19439l-40.942887-179.544891-150.44412 150.452193 179.544891 40.950959z" fill="#FF8F8F" p-id="3872"></path><path d="M958.913322 260.13909a5.973528 5.973528 0 0 0 5.577984-1.630612 5.933167 5.933167 0 0 0 1.62254-5.577984l-24.911228-109.202557-91.507998 91.507998 109.218702 24.903155z" fill="#FF1A1A" p-id="3873"></path><path d="M1002.011523 318.017737c-1.622539 0-3.261224-0.177591-4.891836-0.540846l-179.585252-40.959032a12.116576 12.116576 0 0 1 5.39232-23.619654l176.098003 40.176015-40.167942-176.114148a12.108504 12.108504 0 0 1 23.619654-5.39232l40.942887 179.54489a21.811451 21.811451 0 0 1-5.892805 20.447227 21.795306 21.795306 0 0 1-15.515029 6.457868z" fill="#33363A" p-id="3874"></path><path d="M946.933976 252.995073c-3.228934 0-6.377145-1.291574-8.637399-3.543755a11.938984 11.938984 0 0 1-3.471104-8.564749c0-3.148211 1.21085-6.296422 3.471104-8.556675 4.52858-4.52858 12.673567-4.52858 17.194075 0 2.260254 2.252182 3.551828 5.408465 3.551828 8.556675 0 3.228934-1.372297 6.377145-3.551828 8.564749-2.252182 2.252182-5.408465 3.543755-8.556676 3.543755zM921.183225 227.325046c-3.148211 0-6.28835-1.291574-8.556676-3.551828-2.260254-2.252182-3.551828-5.408465-3.551827-8.556676 0-3.228934 1.291574-6.296422 3.551827-8.564748 4.520508-4.520508 12.51212-4.520508 17.113352-0.080724 2.260254 2.340977 3.543755 5.489188 3.543756 8.6374s-1.283501 6.296422-3.543756 8.556675c-2.260254 2.268326-5.408465 3.5599-8.556676 3.559901zM895.432474 201.574295c-3.156283 0-6.296422-1.291574-8.564748-3.543756-2.252182-2.260254-3.471104-5.327742-3.471104-8.564748 0-3.148211 1.21085-6.28835 3.471104-8.556676 4.447857-4.439785 12.600916-4.52858 17.113352 0 2.260254 2.260254 3.551828 5.408465 3.551828 8.556676 0 3.156283-1.291574 6.296422-3.479177 8.564748a12.40718 12.40718 0 0 1-8.621255 3.543756z" fill="#33363A" p-id="3875"></path><path d="M24.225644 718.106911a9.896684 9.896684 0 0 0-11.842116 11.858261l40.926742 179.544891 150.460265-150.460265-179.544891-40.942887z" fill="#36C6FF" p-id="3876"></path><path d="M65.087808 763.61874a6.021962 6.021962 0 0 0-5.594129 1.630612 6.005818 6.005818 0 0 0-1.622539 5.569911l24.911228 109.21063L174.282293 788.53804 65.087808 763.61874z" fill="#0086FF" p-id="3877"></path><path d="M53.302198 921.618566a12.108504 12.108504 0 0 1-11.801755-9.420415L0.573701 732.65326a21.851813 21.851813 0 0 1 5.844371-20.414937 21.940608 21.940608 0 0 1 20.49566-5.933167l179.552963 40.942887a12.108504 12.108504 0 0 1-5.39232 23.619654L24.968299 730.691682l40.151798 176.122221a12.108504 12.108504 0 0 1-11.817899 14.804663z" fill="#33363A" p-id="3878"></path><path d="M77.059082 794.963619c-3.156283 0-6.296422-1.283501-8.564749-3.543755a12.26995 12.26995 0 0 1-3.543755-8.564748c0-3.220862 1.291574-6.28835 3.543755-8.556676 4.52858-4.520508 12.673567-4.520508 17.194075 0 2.187603 2.260254 3.479177 5.327742 3.479177 8.556676 0 3.156283-1.291574 6.296422-3.479177 8.564748-2.332905 2.260254-5.400393 3.543755-8.629326 3.543755zM102.809832 820.641719c-3.148211 0-6.28835-1.291574-8.556675-3.551828a12.084287 12.084287 0 0 1 0-17.121424c4.520508-4.520508 12.592844-4.520508 17.113351 0a12.140793 12.140793 0 0 1-8.556676 20.673252zM128.560583 846.384398a12.124648 12.124648 0 0 1-12.108503-12.108504c0-3.220862 1.291574-6.28835 3.543755-8.556676 4.447857-4.52858 12.600916-4.52858 17.113352 0a12.100431 12.100431 0 0 1-8.548604 20.66518z" fill="#33363A" p-id="3879"></path><path d="M189.151535 355.441085m-58.532506 0a58.532506 58.532506 0 1 0 117.065012 0 58.532506 58.532506 0 1 0-117.065012 0Z" fill="#A7BBC1" p-id="3880"></path><path d="M189.151535 335.542778m-58.532506 0a58.532506 58.532506 0 1 0 117.065012 0 58.532506 58.532506 0 1 0-117.065012 0Z" fill="#FFFFFF" p-id="3881"></path><path d="M147.76467 376.937715a58.540578 58.540578 0 0 1 82.77373-82.789875" fill="#D8E5EA" p-id="3882"></path><path d="M189.151535 406.143426a70.463418 70.463418 0 0 1-49.951613-20.649035c-27.542809-27.542809-27.542809-72.36849 0-99.911299s72.352345-27.542809 99.895154 0 27.542809 72.36849 0 99.911299a70.390767 70.390767 0 0 1-49.943541 20.649035z m0-117.008506a46.270628 46.270628 0 0 0-32.822117 13.577669 46.496654 46.496654 0 0 0 0 65.66845 46.496654 46.496654 0 0 0 65.652306 0 46.496654 46.496654 0 0 0 0-65.66845 46.286773 46.286773 0 0 0-32.830189-13.577669z" fill="#33363A" p-id="3883"></path><path d="M834.849595 708.872159m-58.532506 0a58.532506 58.532506 0 1 0 117.065012 0 58.532506 58.532506 0 1 0-117.065012 0Z" fill="#A7BBC1" p-id="3884"></path><path d="M834.849595 688.973852m-58.532506 0a58.532506 58.532506 0 1 0 117.065012 0 58.532506 58.532506 0 1 0-117.065012 0Z" fill="#FFFFFF" p-id="3885"></path><path d="M793.46273 730.368789a58.540578 58.540578 0 0 1 82.77373-82.789875" fill="#D8E5EA" p-id="3886"></path><path d="M834.849595 759.582572a70.463418 70.463418 0 0 1-49.951613-20.649035c-27.542809-27.542809-27.542809-72.36849 0-99.911299s72.352345-27.542809 99.895154 0 27.542809 72.36849 0 99.911299a70.447274 70.447274 0 0 1-49.943541 20.649035z m0-117.016578a46.270628 46.270628 0 0 0-32.822117 13.577668 46.496654 46.496654 0 0 0 0 65.668451 46.496654 46.496654 0 0 0 65.652306 0 46.496654 46.496654 0 0 0 0-65.668451 46.319062 46.319062 0 0 0-32.830189-13.577668z" fill="#33363A" p-id="3887"></path><path d="M759.986754 642.404547a7.749442 7.749442 0 0 0 9.275114-9.283186l-32.055246-140.563582L619.4151 610.349302l140.571654 32.055245z" fill="#FFFFFF" p-id="3888"></path><path d="M727.979943 606.773257a4.714244 4.714244 0 0 0 5.642562-5.642562l-19.486618-85.494108-71.641979 71.64198 85.486035 19.49469z" fill="#E4E9ED" p-id="3889"></path><path d="M761.762668 654.714859c-1.501454 0-3.002909-0.169519-4.512436-0.51663L616.727012 622.159129a12.108504 12.108504 0 0 1 5.376176-23.619654l133.807036 30.513429-30.513429-133.807037a12.108504 12.108504 0 1 1 23.619655-5.376175l32.055245 140.563581a19.954814 19.954814 0 0 1-5.311597 18.45336 19.817584 19.817584 0 0 1-13.99743 5.828226z" fill="#33363A" p-id="3890"></path><path d="M698.467483 583.710594a12.108504 12.108504 0 0 1-12.108503-12.108503c0-3.220862 1.291574-6.28835 3.479177-8.556676 4.593159-4.520508 12.665495-4.520508 17.194075 0a12.124648 12.124648 0 0 1 0 17.121424c-2.268326 2.260254-5.408465 3.543755-8.564749 3.543755z" fill="#33363A" p-id="3891"></path><path d="M657.282427 542.53361c-3.099777 0-6.199554-1.178561-8.564748-3.543756L440.70166 330.965764a12.108504 12.108504 0 1 1 17.121424-17.121424l208.024091 208.02409a12.108504 12.108504 0 0 1-8.564748 20.66518z" fill="#33363A" p-id="3892"></path><path d="M264.014376 381.353283a7.717153 7.717153 0 0 0-9.275113 9.275114l32.055245 140.563581 117.775377-117.791522-140.555509-32.047173z" fill="#FFFFFF" p-id="3893"></path><path d="M296.005043 416.9765a4.722316 4.722316 0 0 0-5.642563 5.642563l19.502763 85.494107 71.641979-71.641979-85.502179-19.494691z" fill="#E4E9ED" p-id="3894"></path><path d="M286.786435 543.300482a12.108504 12.108504 0 0 1-11.801754-9.420416l-32.055246-140.563582c-1.533744-6.700039 0.460123-13.61803 5.327742-18.469504a20.01132 20.01132 0 0 1 18.501793-5.279307L407.249901 401.598701a12.108504 12.108504 0 0 1-5.376176 23.619654L268.082834 394.712999l30.513428 133.798964a12.108504 12.108504 0 0 1-11.809827 14.788519z" fill="#33363A" p-id="3895"></path><path d="M325.525574 464.248098a12.108504 12.108504 0 0 1-8.556676-20.665179c4.520508-4.439785 12.592844-4.52858 17.113352 0 2.260254 2.252182 3.543755 5.408465 3.543756 8.556676 0 3.156283-1.283501 6.296422-3.543756 8.564748-2.260254 2.244109-5.408465 3.543755-8.556676 3.543755z" fill="#33363A" p-id="3896"></path><path d="M574.734722 713.465318c-3.099777 0-6.199554-1.178561-8.564748-3.543755l-208.024091-208.016019a12.108504 12.108504 0 1 1 17.121424-17.121424l208.024091 208.016019a12.108504 12.108504 0 0 1-8.556676 20.665179z" fill="#33363A" p-id="3897"></path></svg>